<?xml version="1.0" encoding="UTF-8"?>
<!DOCTYPE svg PUBLIC "-//W3C//DTD SVG 1.1//EN" "http://www.w3.org/Graphics/SVG/1.1/DTD/svg11.dtd">
<svg xmlns="http://www.w3.org/2000/svg" version="1.1" width="532px" height="469px" style="shape-rendering:geometricPrecision; text-rendering:geometricPrecision; image-rendering:optimizeQuality; fill-rule:evenodd; clip-rule:evenodd" xmlns:xlink="http://www.w3.org/1999/xlink">
<g><path style="opacity:0.939" fill="#191919" d="M 396.5,9.5 C 396.557,10.609 396.89,11.609 397.5,12.5C 376.107,22.3141 357.273,35.9807 341,53.5C 339.25,55.7343 337.75,58.0676 336.5,60.5C 336.167,60.5 335.833,60.5 335.5,60.5C 334.167,61.1667 334.167,61.8333 335.5,62.5C 339.837,76.351 342.837,90.5177 344.5,105C 344.407,112.869 342.074,119.869 337.5,126C 335.564,126.813 333.564,127.313 331.5,127.5C 330.253,135.593 326.586,142.427 320.5,148C 319.668,148.688 319.002,148.521 318.5,147.5C 316.089,143.843 314.089,140.01 312.5,136C 314.959,132.038 317.626,128.205 320.5,124.5C 312.788,117.246 307.788,108.413 305.5,98C 307.694,88.737 312.527,87.237 320,93.5C 324.035,99.8928 327.702,106.56 331,113.5C 333.062,111.099 334.729,108.433 336,105.5C 337.551,98.5817 337.884,91.5817 337,84.5C 335.584,78.0832 333.918,71.7499 332,65.5C 326.989,71.3423 321.823,77.0089 316.5,82.5C 313.35,78.8811 310.684,74.8811 308.5,70.5C 314.53,64.4691 320.863,58.8024 327.5,53.5C 328.811,51.4402 328.811,49.2735 327.5,47C 328.094,46.5357 328.761,46.369 329.5,46.5C 330.212,47.7387 331.212,48.2387 332.5,48C 350.376,30.0613 370.709,15.5613 393.5,4.5C 394.952,5.93972 395.952,7.60638 396.5,9.5 Z M 316.5,103.5 C 318.833,103.5 321.167,103.5 323.5,103.5C 323.895,107.185 324.062,110.852 324,114.5C 319.81,115.751 316.477,114.418 314,110.5C 313.333,109.167 313.333,107.833 314,106.5C 315.045,105.627 315.878,104.627 316.5,103.5 Z"/></g>
<g><path style="opacity:0.016" fill="#b0b0b0" d="M 396.5,9.5 C 398.382,10.221 398.715,11.221 397.5,12.5C 396.89,11.609 396.557,10.609 396.5,9.5 Z"/></g>
<g><path style="opacity:0.004" fill="#fefffe" d="M 147.5,21.5 C 148.833,22.1667 148.833,22.1667 147.5,21.5 Z"/></g>
<g><path style="opacity:0.067" fill="#898989" d="M 320.5,29.5 C 320.167,29.5 319.833,29.5 319.5,29.5C 317.727,28.6857 317.227,27.3524 318,25.5C 319.481,26.4709 320.315,27.8042 320.5,29.5 Z"/></g>
<g><path style="opacity:0.818" fill="#2f2f2f" d="M 319.5,29.5 C 319.833,29.5 320.167,29.5 320.5,29.5C 324.733,34.4299 327.733,40.0966 329.5,46.5C 328.761,46.369 328.094,46.5357 327.5,47C 328.811,49.2735 328.811,51.4402 327.5,53.5C 324.636,45.5738 321.969,37.5738 319.5,29.5 Z"/></g>
<g><path style="opacity:0.902" fill="#232323" d="M 450.5,67.5 C 449.508,67.6716 448.842,67.3382 448.5,66.5C 460.806,55.5859 473.64,45.2525 487,35.5C 488.626,37.9171 490.126,40.4171 491.5,43C 477.909,51.452 464.243,59.6186 450.5,67.5 Z"/></g>
<g><path style="opacity:0.004" fill="#fefffe" d="M 514.5,40.5 C 515.833,41.1667 515.833,41.1667 514.5,40.5 Z"/></g>
<g><path style="opacity:0.885" fill="#1f1f1f" d="M 213.5,92.5 C 211.821,92.7148 210.821,92.0481 210.5,90.5C 213.7,78.8632 216.033,67.0298 217.5,55C 217.101,51.4358 216.434,47.9358 215.5,44.5C 211.863,42.2574 207.863,41.2574 203.5,41.5C 199.459,41.6735 195.459,42.1735 191.5,43C 187.244,44.8073 182.911,46.3073 178.5,47.5C 176.973,47.427 175.973,48.0937 175.5,49.5C 175.167,49.5 174.833,49.5 174.5,49.5C 172.973,49.427 171.973,50.0937 171.5,51.5C 168.661,53.4203 165.661,55.0869 162.5,56.5C 162.489,54.9826 161.823,53.8159 160.5,53C 161.056,52.6174 161.389,52.1174 161.5,51.5C 175.454,40.0227 191.454,33.856 209.5,33C 210.966,33.6355 212.3,34.4688 213.5,35.5C 218.906,42.4761 222.24,50.3094 223.5,59C 221.854,70.7615 218.521,81.9282 213.5,92.5 Z"/></g>
<g><path style="opacity:0.004" fill="#c6c6c6" d="M 178.5,47.5 C 178.027,48.9063 177.027,49.573 175.5,49.5C 175.973,48.0937 176.973,47.427 178.5,47.5 Z"/></g>
<g><path style="opacity:0.004" fill="#c9c9c9" d="M 174.5,49.5 C 174.027,50.9063 173.027,51.573 171.5,51.5C 171.973,50.0937 172.973,49.427 174.5,49.5 Z"/></g>
<g><path style="opacity:0.004" fill="#fefffe" d="M 175.5,50.5 C 176.833,51.1667 176.833,51.1667 175.5,50.5 Z"/></g>
<g><path style="opacity:0.878" fill="#2e2e2e" d="M 161.5,51.5 C 161.389,52.1174 161.056,52.6174 160.5,53C 161.823,53.8159 162.489,54.9826 162.5,56.5C 144.324,68.6685 126.99,82.0019 110.5,96.5C 110.719,95.325 110.386,94.325 109.5,93.5C 108.06,94.9524 106.394,95.9524 104.5,96.5C 115.013,86.4912 126.013,76.9912 137.5,68C 145.124,61.8634 153.124,56.3634 161.5,51.5 Z"/></g>
<g><path style="opacity:0.004" fill="#fefffe" d="M 516.5,58.5 C 517.833,59.1667 517.833,59.1667 516.5,58.5 Z"/></g>
<g><path style="opacity:0.204" fill="#707070" d="M 335.5,60.5 C 335.833,60.5 336.167,60.5 336.5,60.5C 338.853,62.8599 340.853,65.5265 342.5,68.5C 341.833,68.8333 341.167,69.1667 340.5,69.5C 339.079,66.9906 337.412,64.6572 335.5,62.5C 335.5,61.8333 335.5,61.1667 335.5,60.5 Z"/></g>
<g><path style="opacity:0.004" fill="#fefffe" d="M 75.5,66.5 C 76.8333,67.1667 76.8333,67.1667 75.5,66.5 Z"/></g>
<g><path style="opacity:0.004" fill="#fefffe" d="M 272.5,66.5 C 273.833,67.1667 273.833,67.1667 272.5,66.5 Z"/></g>
<g><path style="opacity:0.004" fill="#fefffe" d="M 345.5,68.5 C 346.833,69.1667 346.833,69.1667 345.5,68.5 Z"/></g>
<g><path style="opacity:0.004" fill="#fefffe" d="M 207.5,69.5 C 208.833,70.1667 208.833,70.1667 207.5,69.5 Z"/></g>
<g><path style="opacity:0.588" fill="#1e1e1e" d="M 342.5,68.5 C 343.167,69.5 343.833,70.5 344.5,71.5C 344.158,72.3382 343.492,72.6716 342.5,72.5C 341.599,71.7095 340.932,70.7095 340.5,69.5C 341.167,69.1667 341.833,68.8333 342.5,68.5 Z"/></g>
<g><path style="opacity:0.004" fill="#fefffe" d="M 279.5,74.5 C 280.833,75.1667 280.833,75.1667 279.5,74.5 Z"/></g>
<g><path style="opacity:0.6" fill="#4c4c4c" d="M 344.5,71.5 C 346.167,72.5 347.5,73.8333 348.5,75.5C 347.167,75.5 346.5,76.1667 346.5,77.5C 344.457,76.4206 343.124,74.754 342.5,72.5C 343.492,72.6716 344.158,72.3382 344.5,71.5 Z"/></g>
<g><path style="opacity:0.943" fill="#181818" d="M 362.5,92.5 C 362.027,91.0937 361.027,90.427 359.5,90.5C 354.145,87.1454 349.812,82.8121 346.5,77.5C 346.5,76.1667 347.167,75.5 348.5,75.5C 353.501,80.2517 359.334,83.585 366,85.5C 375.423,83.8692 383.923,80.2026 391.5,74.5C 394.367,77.0552 396.367,80.2219 397.5,84C 396.132,85.8734 394.466,87.54 392.5,89C 385.82,92.3935 378.82,94.8935 371.5,96.5C 368.08,95.9093 365.08,94.5759 362.5,92.5 Z"/></g>
<g><path style="opacity:0.371" fill="#3c3c3c" d="M 448.5,66.5 C 448.842,67.3382 449.508,67.6716 450.5,67.5C 442.889,73.6458 434.889,79.3124 426.5,84.5C 425.662,84.1583 425.328,83.4916 425.5,82.5C 433.185,77.1414 440.851,71.808 448.5,66.5 Z"/></g>
<g><path style="opacity:0.004" fill="#fefffe" d="M 89.5,79.5 C 90.8333,80.1667 90.8333,80.1667 89.5,79.5 Z"/></g>
<g><path style="opacity:0.004" fill="#fefffe" d="M 497.5,82.5 C 498.833,83.1667 498.833,83.1667 497.5,82.5 Z"/></g>
<g><path style="opacity:0.314" fill="#8b8b8b" d="M 359.5,90.5 C 361.027,90.427 362.027,91.0937 362.5,92.5C 360.973,92.573 359.973,91.9063 359.5,90.5 Z"/></g>
<g><path style="opacity:0.255" fill="#5e5e5e" d="M 425.5,82.5 C 425.328,83.4916 425.662,84.1583 426.5,84.5C 410.851,95.8097 395.184,107.143 379.5,118.5C 379.5,117.833 379.5,117.167 379.5,116.5C 394.439,104.691 409.772,93.3572 425.5,82.5 Z"/></g>
<g><path style="opacity:0.935" fill="#1f1f1f" d="M 110.5,96.5 C 84.2055,121.438 63.8722,150.438 49.5,183.5C 46.2602,179.748 43.5935,175.581 41.5,171C 43.6239,165.954 46.1239,161.12 49,156.5C 66.2912,135.376 84.7912,115.376 104.5,96.5C 106.394,95.9524 108.06,94.9524 109.5,93.5C 110.386,94.325 110.719,95.325 110.5,96.5 Z"/></g>
<g><path style="opacity:0.004" fill="#fefffe" d="M 32.5,98.5 C 33.8333,99.1667 33.8333,99.1667 32.5,98.5 Z"/></g>
<g><path style="opacity:0.004" fill="#fefffe" d="M 54.5,98.5 C 55.8333,99.1667 55.8333,99.1667 54.5,98.5 Z"/></g>
<g><path style="opacity:0.004" fill="#fefffe" d="M 351.5,101.5 C 352.833,102.167 352.833,102.167 351.5,101.5 Z"/></g>
<g><path style="opacity:0.004" fill="#fefffe" d="M 200.5,102.5 C 201.833,103.167 201.833,103.167 200.5,102.5 Z"/></g>
<g><path style="opacity:0.004" fill="#fefffe" d="M 33.5,103.5 C 34.8333,104.167 34.8333,104.167 33.5,103.5 Z"/></g>
<g><path style="opacity:0.216" fill="#6c6c6c" d="M 199.5,105.5 C 198.662,105.842 198.328,106.508 198.5,107.5C 196.895,105.692 196.561,103.692 197.5,101.5C 198.705,102.577 199.372,103.91 199.5,105.5 Z"/></g>
<g><path style="opacity:0.004" fill="#fefffe" d="M 291.5,108.5 C 292.833,109.167 292.833,109.167 291.5,108.5 Z"/></g>
<g><path style="opacity:0.004" fill="#fefffe" d="M 288.5,111.5 C 289.833,112.167 289.833,112.167 288.5,111.5 Z"/></g>
<g><path style="opacity:0.004" fill="#fefffe" d="M 193.5,113.5 C 194.833,114.167 194.833,114.167 193.5,113.5 Z"/></g>
<g><path style="opacity:0.722" fill="#292929" d="M 210.5,90.5 C 210.821,92.0481 211.821,92.7148 213.5,92.5C 210.709,99.5238 207.709,106.524 204.5,113.5C 205.788,115.739 206.788,118.072 207.5,120.5C 206.539,122.265 206.205,124.265 206.5,126.5C 205.065,124.402 203.898,122.069 203,119.5C 202.333,118.167 201.667,118.167 201,119.5C 195.936,129.504 190.769,139.504 185.5,149.5C 184.833,149.5 184.167,149.5 183.5,149.5C 189.092,137.817 195.092,126.317 201.5,115C 200.009,112.692 199.009,110.192 198.5,107.5C 198.328,106.508 198.662,105.842 199.5,105.5C 200.804,106.987 201.97,108.654 203,110.5C 205.211,103.598 207.711,96.9318 210.5,90.5 Z"/></g>
<g><path style="opacity:0.004" fill="#fefffe" d="M 451.5,122.5 C 452.833,123.167 452.833,123.167 451.5,122.5 Z"/></g>
<g><path style="opacity:0.801" fill="#3d3d3d" d="M 207.5,120.5 C 214.442,138.993 221.775,157.327 229.5,175.5C 229.5,176.167 229.167,176.5 228.5,176.5C 219.566,160.623 212.232,143.956 206.5,126.5C 206.205,124.265 206.539,122.265 207.5,120.5 Z"/></g>
<g><path style="opacity:0.004" fill="#fefffe" d="M 0.5,130.5 C 1.83333,131.167 1.83333,131.167 0.5,130.5 Z"/></g>
<g><path style="opacity:0.004" fill="#fefffe" d="M 504.5,130.5 C 505.833,131.167 505.833,131.167 504.5,130.5 Z"/></g>
<g><path style="opacity:0.004" fill="#fefffe" d="M 455.5,135.5 C 456.833,136.167 456.833,136.167 455.5,135.5 Z"/></g>
<g><path style="opacity:0.004" fill="#fefffe" d="M 415.5,139.5 C 416.833,140.167 416.833,140.167 415.5,139.5 Z"/></g>
<g><path style="opacity:0.952" fill="#191919" d="M 233.5,184.5 C 233.328,183.508 233.662,182.842 234.5,182.5C 239.138,189.472 245.472,194.139 253.5,196.5C 259.402,195.1 263.236,191.433 265,185.5C 266.893,171.505 266.06,157.671 262.5,144C 262.833,143.167 263.167,142.333 263.5,141.5C 266.289,144.791 269.289,147.958 272.5,151C 276.262,153.156 280.262,153.823 284.5,153C 287.663,150.995 290.663,148.828 293.5,146.5C 303.663,156.432 301.663,163.099 287.5,166.5C 280.701,166.188 275.534,163.188 272,157.5C 272.236,165.98 272.736,174.48 273.5,183C 273.809,191.066 271.976,198.566 268,205.5C 262.683,208.962 257.183,209.129 251.5,206C 243.096,200.769 237.096,193.603 233.5,184.5 Z"/></g>
<g><path style="opacity:0.004" fill="#fefffe" d="M 27.5,150.5 C 28.8333,151.167 28.8333,151.167 27.5,150.5 Z"/></g>
<g><path style="opacity:0.352" fill="#414141" d="M 379.5,116.5 C 379.5,117.167 379.5,117.833 379.5,118.5C 344.628,147.025 310.295,176.359 276.5,206.5C 275.662,206.158 275.328,205.492 275.5,204.5C 307.768,175.059 340.768,146.559 374.5,119C 376.078,117.906 377.745,117.072 379.5,116.5 Z"/></g>
<g><path style="opacity:0.004" fill="#fefffe" d="M 194.5,153.5 C 195.833,154.167 195.833,154.167 194.5,153.5 Z"/></g>
<g><path style="opacity:0.004" fill="#fefffe" d="M 520.5,159.5 C 521.833,160.167 521.833,160.167 520.5,159.5 Z"/></g>
<g><path style="opacity:0.004" fill="#fefffe" d="M 442.5,169.5 C 443.833,170.167 443.833,170.167 442.5,169.5 Z"/></g>
<g><path style="opacity:0.071" fill="#878787" d="M 229.5,175.5 C 230.909,177.972 232.576,180.305 234.5,182.5C 233.662,182.842 233.328,183.508 233.5,184.5C 231.842,181.912 230.175,179.245 228.5,176.5C 229.167,176.5 229.5,176.167 229.5,175.5 Z"/></g>
<g><path style="opacity:0.004" fill="#fefffe" d="M 334.5,184.5 C 335.833,185.167 335.833,185.167 334.5,184.5 Z"/></g>
<g><path style="opacity:0.004" fill="#fefffe" d="M 86.5,188.5 C 87.8333,189.167 87.8333,189.167 86.5,188.5 Z"/></g>
<g><path style="opacity:0.004" fill="#fefffe" d="M 428.5,191.5 C 429.833,192.167 429.833,192.167 428.5,191.5 Z"/></g>
<g><path style="opacity:0.004" fill="#fefffe" d="M 489.5,201.5 C 490.833,202.167 490.833,202.167 489.5,201.5 Z"/></g>
<g><path style="opacity:0.004" fill="#fefffe" d="M 171.5,204.5 C 172.833,205.167 172.833,205.167 171.5,204.5 Z"/></g>
<g><path style="opacity:0.384" fill="#4b4b4b" d="M 183.5,149.5 C 184.167,149.5 184.833,149.5 185.5,149.5C 173.16,172.206 160.827,194.873 148.5,217.5C 148.5,216.833 148.167,216.5 147.5,216.5C 159.15,193.798 171.15,171.465 183.5,149.5 Z"/></g>
<g><path style="opacity:0.004" fill="#fefffe" d="M 51.5,218.5 C 52.8333,219.167 52.8333,219.167 51.5,218.5 Z"/></g>
<g><path style="opacity:0.004" fill="#fefffe" d="M 432.5,218.5 C 433.833,219.167 433.833,219.167 432.5,218.5 Z"/></g>
<g><path style="opacity:0.942" fill="#171717" d="M 207.5,231.5 C 208.738,231.19 208.738,230.69 207.5,230C 208.094,229.536 208.761,229.369 209.5,229.5C 211.199,229.66 212.866,229.494 214.5,229C 216.699,225.807 219.199,222.974 222,220.5C 228.928,225.982 229.928,232.316 225,239.5C 220.046,243.677 215.38,243.343 211,238.5C 209.82,236.14 208.653,233.807 207.5,231.5 Z"/></g>
<g><path style="opacity:0.004" fill="#fefffe" d="M 299.5,221.5 C 300.833,222.167 300.833,222.167 299.5,221.5 Z"/></g>
<g><path style="opacity:0.004" fill="#fefffe" d="M 127.5,222.5 C 128.833,223.167 128.833,223.167 127.5,222.5 Z"/></g>
<g><path style="opacity:0.004" fill="#fefffe" d="M 42.5,225.5 C 43.8333,226.167 43.8333,226.167 42.5,225.5 Z"/></g>
<g><path style="opacity:0.024" fill="#5c5c5c" d="M 204.5,222.5 C 205.909,224.972 207.576,227.305 209.5,229.5C 208.761,229.369 208.094,229.536 207.5,230C 208.738,230.69 208.738,231.19 207.5,231.5C 206.5,230.167 205.5,228.833 204.5,227.5C 203.904,226.065 203.904,224.398 204.5,222.5 Z"/></g>
<g><path style="opacity:0.004" fill="#fefffe" d="M 486.5,233.5 C 487.833,234.167 487.833,234.167 486.5,233.5 Z"/></g>
<g><path style="opacity:0.004" fill="#fefffe" d="M 306.5,235.5 C 307.833,236.167 307.833,236.167 306.5,235.5 Z"/></g>
<g><path style="opacity:0.939" fill="#161616" d="M 204.5,222.5 C 203.904,224.398 203.904,226.065 204.5,227.5C 204.667,239.171 204.5,250.838 204,262.5C 203.007,265.474 202.174,268.474 201.5,271.5C 200.167,271.833 200.167,272.167 201.5,272.5C 201.5,273.167 201.5,273.833 201.5,274.5C 200.833,274.5 200.167,274.5 199.5,274.5C 199.631,273.761 199.464,273.094 199,272.5C 195.457,273.958 192.29,273.291 189.5,270.5C 183.608,264.376 178.441,257.709 174,250.5C 173.649,264.02 171.982,277.353 169,290.5C 166.256,297.546 161.423,299.38 154.5,296C 153.299,295.097 152.465,293.931 152,292.5C 150.789,299.663 147.955,305.997 143.5,311.5C 140.506,307.676 138.173,303.51 136.5,299C 137.08,295.672 138.58,292.839 141,290.5C 142.348,287.289 143.182,283.956 143.5,280.5C 141.443,272.16 140.777,263.826 141.5,255.5C 142.822,255.33 143.989,255.663 145,256.5C 149.393,262.773 152.226,269.607 153.5,277C 151.43,285.45 153.597,286.616 160,280.5C 162.41,274.562 164.243,268.562 165.5,262.5C 166.33,254.01 166.83,245.343 167,236.5C 167.383,237.056 167.883,237.389 168.5,237.5C 171.978,242.434 175.478,247.434 179,252.5C 189.737,264.154 195.737,261.82 197,245.5C 197.677,234.08 197.343,222.747 196,211.5C 197.147,210.542 198.147,210.875 199,212.5C 201.095,215.743 202.929,219.077 204.5,222.5 Z"/></g>
<g><path style="opacity:0.225" fill="#767676" d="M 275.5,204.5 C 275.328,205.492 275.662,206.158 276.5,206.5C 251.474,229.195 226.474,251.862 201.5,274.5C 201.5,273.833 201.5,273.167 201.5,272.5C 201.5,272.167 201.5,271.833 201.5,271.5C 226.192,249.138 250.859,226.805 275.5,204.5 Z"/></g>
<g><path style="opacity:0.329" fill="#2a2a2a" d="M 147.5,216.5 C 148.167,216.5 148.5,216.833 148.5,217.5C 139.645,235.705 130.312,253.705 120.5,271.5C 119.508,271.672 118.842,271.338 118.5,270.5C 127.661,252.174 137.328,234.174 147.5,216.5 Z"/></g>
<g><path style="opacity:0.004" fill="#fefffe" d="M 127.5,241.5 C 128.833,242.167 128.833,242.167 127.5,241.5 Z"/></g>
<g><path style="opacity:0.004" fill="#fefffe" d="M 516.5,242.5 C 517.833,243.167 517.833,243.167 516.5,242.5 Z"/></g>
<g><path style="opacity:0.004" fill="#fefffe" d="M 526.5,243.5 C 527.833,244.167 527.833,244.167 526.5,243.5 Z"/></g>
<g><path style="opacity:0.004" fill="#fefffe" d="M 529.5,244.5 C 530.833,245.167 530.833,245.167 529.5,244.5 Z"/></g>
<g><path style="opacity:0.409" fill="#474747" d="M 168.5,237.5 C 167.883,237.389 167.383,237.056 167,236.5C 166.83,245.343 166.33,254.01 165.5,262.5C 165.5,253.5 165.5,244.5 165.5,235.5C 167.179,235.285 168.179,235.952 168.5,237.5 Z"/></g>
<g><path style="opacity:0.004" fill="#fefffe" d="M 371.5,246.5 C 372.833,247.167 372.833,247.167 371.5,246.5 Z"/></g>
<g><path style="opacity:0.004" fill="#fefffe" d="M 52.5,249.5 C 53.8333,250.167 53.8333,250.167 52.5,249.5 Z"/></g>
<g><path style="opacity:0.004" fill="#fefffe" d="M 87.5,259.5 C 88.8333,260.167 88.8333,260.167 87.5,259.5 Z"/></g>
<g><path style="opacity:0.004" fill="#fefffe" d="M 310.5,273.5 C 311.833,274.167 311.833,274.167 310.5,273.5 Z"/></g>
<g><path style="opacity:0.004" fill="#fefffe" d="M 237.5,281.5 C 238.833,282.167 238.833,282.167 237.5,281.5 Z"/></g>
<g><path style="opacity:0.004" fill="#fefffe" d="M 251.5,287.5 C 252.833,288.167 252.833,288.167 251.5,287.5 Z"/></g>
<g><path style="opacity:0.322" fill="#898989" d="M 199.5,274.5 C 200.167,274.5 200.833,274.5 201.5,274.5C 185.398,289.724 169.064,304.724 152.5,319.5C 152.158,318.662 151.492,318.328 150.5,318.5C 166.231,303.099 182.564,288.432 199.5,274.5 Z"/></g>
<g><path style="opacity:0.004" fill="#fefffe" d="M 321.5,296.5 C 322.833,297.167 322.833,297.167 321.5,296.5 Z"/></g>
<g><path style="opacity:0.004" fill="#fefffe" d="M 389.5,307.5 C 390.833,308.167 390.833,308.167 389.5,307.5 Z"/></g>
<g><path style="opacity:0.004" fill="#fefffe" d="M 38.5,318.5 C 39.8333,319.167 39.8333,319.167 38.5,318.5 Z"/></g>
<g><path style="opacity:0.004" fill="#fefffe" d="M 55.5,322.5 C 56.8333,323.167 56.8333,323.167 55.5,322.5 Z"/></g>
<g><path style="opacity:0.004" fill="#fefffe" d="M 94.5,327.5 C 95.8333,328.167 95.8333,328.167 94.5,327.5 Z"/></g>
<g><path style="opacity:0.816" fill="#414141" d="M 118.5,270.5 C 118.842,271.338 119.508,271.672 120.5,271.5C 97.9401,312.948 75.6068,354.614 53.5,396.5C 53.1788,394.952 52.1788,394.285 50.5,394.5C 72.6623,352.838 95.329,311.505 118.5,270.5 Z"/></g>
<g><path style="opacity:0.004" fill="#fefffe" d="M 495.5,333.5 C 496.833,334.167 496.833,334.167 495.5,333.5 Z"/></g>
<g><path style="opacity:0.004" fill="#fefffe" d="M 510.5,334.5 C 511.833,335.167 511.833,335.167 510.5,334.5 Z"/></g>
<g><path style="opacity:0.004" fill="#fefffe" d="M 158.5,337.5 C 159.833,338.167 159.833,338.167 158.5,337.5 Z"/></g>
<g><path style="opacity:0.298" fill="#666666" d="M 150.5,318.5 C 151.492,318.328 152.158,318.662 152.5,319.5C 138.753,332.587 124.753,345.254 110.5,357.5C 110.5,356.833 110.167,356.5 109.5,356.5C 122.893,343.619 136.56,330.953 150.5,318.5 Z"/></g>
<g><path style="opacity:0.004" fill="#fefffe" d="M 229.5,344.5 C 230.833,345.167 230.833,345.167 229.5,344.5 Z"/></g>
<g><path style="opacity:0.004" fill="#fefffe" d="M 415.5,344.5 C 416.833,345.167 416.833,345.167 415.5,344.5 Z"/></g>
<g><path style="opacity:0.004" fill="#fefffe" d="M 413.5,351.5 C 414.833,352.167 414.833,352.167 413.5,351.5 Z"/></g>
<g><path style="opacity:0.004" fill="#fefffe" d="M 41.5,356.5 C 42.8333,357.167 42.8333,357.167 41.5,356.5 Z"/></g>
<g><path style="opacity:0.004" fill="#fefffe" d="M 416.5,356.5 C 417.833,357.167 417.833,357.167 416.5,356.5 Z"/></g>
<g><path style="opacity:0.004" fill="#fefffe" d="M 488.5,368.5 C 489.833,369.167 489.833,369.167 488.5,368.5 Z"/></g>
<g><path style="opacity:0.004" fill="#fefffe" d="M 241.5,369.5 C 242.833,370.167 242.833,370.167 241.5,369.5 Z"/></g>
<g><path style="opacity:0.004" fill="#fefffe" d="M 335.5,369.5 C 336.833,370.167 336.833,370.167 335.5,369.5 Z"/></g>
<g><path style="opacity:0.412" fill="#444545" d="M 109.5,356.5 C 110.167,356.5 110.5,356.833 110.5,357.5C 101.833,365.5 93.5,373.833 85.5,382.5C 85.5,381.167 84.8333,380.5 83.5,380.5C 91.7038,372.053 100.37,364.053 109.5,356.5 Z"/></g>
<g><path style="opacity:0.004" fill="#fefffe" d="M 237.5,373.5 C 238.833,374.167 238.833,374.167 237.5,373.5 Z"/></g>
<g><path style="opacity:0.928" fill="#191919" d="M 83.5,380.5 C 84.8333,380.5 85.5,381.167 85.5,382.5C 74.5287,395.103 64.0287,408.103 54,421.5C 50.3182,425.349 46.4849,429.016 42.5,432.5C 38.3703,427.915 36.2036,422.581 36,416.5C 40.6746,409.006 45.5079,401.672 50.5,394.5C 52.1788,394.285 53.1788,394.952 53.5,396.5C 51.939,401.381 49.939,406.048 47.5,410.5C 46.4265,411.251 46.2599,412.251 47,413.5C 47.7172,412.956 48.2172,412.289 48.5,411.5C 52.3108,408.75 55.9775,405.75 59.5,402.5C 61.0269,402.573 62.0269,401.906 62.5,400.5C 69.4736,393.861 76.4736,387.194 83.5,380.5 Z"/></g>
<g><path style="opacity:0.004" fill="#fefffe" d="M 27.5,395.5 C 28.8333,396.167 28.8333,396.167 27.5,395.5 Z"/></g>
<g><path style="opacity:0.263" fill="#8a8a8a" d="M 62.5,400.5 C 62.0269,401.906 61.0269,402.573 59.5,402.5C 59.9731,401.094 60.9731,400.427 62.5,400.5 Z"/></g>
<g><path style="opacity:0.004" fill="#fefffe" d="M 207.5,406.5 C 208.833,407.167 208.833,407.167 207.5,406.5 Z"/></g>
<g><path style="opacity:0.004" fill="#fefffe" d="M 343.5,409.5 C 344.833,410.167 344.833,410.167 343.5,409.5 Z"/></g>
<g><path style="opacity:0.004" fill="#fefffe" d="M 474.5,409.5 C 475.833,410.167 475.833,410.167 474.5,409.5 Z"/></g>
<g><path style="opacity:0.027" fill="#a2a2a2" d="M 47.5,410.5 C 47.5,411.167 47.8333,411.5 48.5,411.5C 48.2172,412.289 47.7172,412.956 47,413.5C 46.2599,412.251 46.4265,411.251 47.5,410.5 Z"/></g>
<g><path style="opacity:0.004" fill="#fefffe" d="M 106.5,414.5 C 107.833,415.167 107.833,415.167 106.5,414.5 Z"/></g>
<g><path style="opacity:0.004" fill="#fefffe" d="M 475.5,415.5 C 476.833,416.167 476.833,416.167 475.5,415.5 Z"/></g>
<g><path style="opacity:0.004" fill="#fefffe" d="M 279.5,431.5 C 280.833,432.167 280.833,432.167 279.5,431.5 Z"/></g>
<g><path style="opacity:0.004" fill="#fefffe" d="M 392.5,433.5 C 393.833,434.167 393.833,434.167 392.5,433.5 Z"/></g>
<g><path style="opacity:0.004" fill="#fefffe" d="M 36.5,455.5 C 37.8333,456.167 37.8333,456.167 36.5,455.5 Z"/></g>
</svg>
